<?xml version="1.0" standalone="no"?>
<!DOCTYPE svg PUBLIC "-//W3C//DTD SVG 20010904//EN"
 "http://www.w3.org/TR/2001/REC-SVG-20010904/DTD/svg10.dtd">
<svg version="1.0" xmlns="http://www.w3.org/2000/svg"
 width="700.000000pt" height="700.000000pt" viewBox="0 0 700.000000 700.000000"
 preserveAspectRatio="xMidYMid meet">
<metadata>
Created by potrace 1.14, written by Peter Selinger 2001-2017
</metadata>
<g transform="translate(0.000000,700.000000) scale(0.100000,-0.100000)"
fill="#000000" stroke="none">
<path d="M2244 5660 c3 -292 7 -534 10 -538 2 -4 152 -7 333 -6 l328 0 0
-1556 0 -1556 -133 1 c-74 0 -135 -2 -137 -5 -4 -7 -2 -9 330 -296 127 -109
244 -210 260 -225 17 -15 122 -106 235 -204 113 -98 232 -200 264 -229 32 -28
68 -59 80 -69 12 -9 32 -27 46 -40 14 -13 53 -47 88 -76 l63 -54 -2 589 c-2
324 -6 594 -10 599 -5 6 -196 10 -538 10 -292 0 -531 2 -531 6 0 3 86 73 191
155 105 82 203 159 217 170 46 37 329 259 363 284 18 14 67 52 108 85 42 33
93 74 115 90 21 17 48 37 60 47 l21 16 0 -427 0 -426 425 0 425 0 0 435 0 435
-409 5 -409 5 54 42 c30 22 65 50 79 62 14 11 158 124 320 251 162 127 303
237 312 245 9 7 27 21 40 29 l23 15 -2 -122 c-1 -67 -3 -212 -4 -321 l-3 -200
1052 -2 c579 -1 1052 -1 1052 2 0 2 -39 42 -87 90 -162 159 -817 801 -929 910
-62 60 -279 273 -484 474 -205 201 -422 414 -484 473 -61 60 -275 270 -476
467 -201 196 -412 403 -470 460 -58 56 -180 175 -271 266 l-166 164 -677 0
-677 0 5 -530z m1756 -549 c3 0 7 -193 8 -427 l3 -425 -63 48 c-35 27 -92 71
-128 100 -36 28 -249 195 -475 372 -225 177 -411 325 -413 330 -2 5 1047 8
1068 2z m869 -1198 c-1 -177 -3 -323 -5 -323 -2 0 -443 344 -504 393 -8 7 -78
61 -155 121 -77 60 -146 115 -153 121 -11 10 74 13 403 12 l416 0 -2 -324z"/>
<path d="M75 4240 c-27 -5 -21 -11 115 -130 78 -69 152 -134 165 -145 12 -11
35 -31 51 -45 46 -40 205 -179 244 -214 19 -17 105 -92 190 -166 85 -74 157
-137 160 -140 3 -3 59 -53 125 -110 66 -58 122 -107 125 -110 3 -3 61 -54 130
-114 69 -60 144 -126 167 -146 l42 -37 323 1 323 1 2 678 2 677 -42 0 c-43 1
-423 1 -582 0 -49 0 -410 1 -801 2 -390 2 -723 1 -739 -2z"/>
<path d="M2249 2879 c-6 -3 -8 -113 -4 -280 4 -211 8 -276 18 -284 21 -16 118
-97 148 -125 15 -14 45 -39 66 -57 39 -32 68 -57 115 -99 15 -13 30 -24 33
-24 8 0 6 870 -2 871 -32 4 -367 3 -374 -2z"/>
</g>
</svg>
